<svg width="32" height="32" viewBox="0 0 32 32" fill="none" xmlns="http://www.w3.org/2000/svg">
  <rect width="32" height="32" rx="16" fill="#2b3e61"/>
  <g transform="translate(4, 4)">
    <path d="M4 6C4 4.89543 4.89543 4 6 4H18C19.1046 4 20 4.89543 20 6V18C20 19.1046 19.1046 20 18 20H6C4.89543 20 4 19.1046 4 18V6Z" fill="#e3970c"/>
    <path d="M10 10C10 8.89543 10.8954 8 12 8H18C19.1046 8 20 8.89543 20 10V18C20 19.1046 19.1046 20 18 20H12C10.8954 20 10 19.1046 10 18V10Z" fill="#29d035"/>
    <text x="11.5" y="16.5" font-family="Arial, sans-serif" font-size="10" font-weight="bold" fill="white" text-anchor="middle">CB</text>
  </g>
</svg>
